<?xml version="1.0" encoding="UTF-8" standalone="no"?><!-- Generator: Gravit.io --><svg xmlns="http://www.w3.org/2000/svg" xmlns:xlink="http://www.w3.org/1999/xlink" style="isolation:isolate" viewBox="0 0 500 500" width="500pt" height="500pt"><defs><clipPath id="_clipPath_E0uarWtSc4ir9WoF8MARRqJL3qnRlaal"><rect width="500" height="500"/></clipPath></defs><g clip-path="url(#_clipPath_E0uarWtSc4ir9WoF8MARRqJL3qnRlaal)"><path d=" M 418.367 76.42 C 414.038 77.04 409.66 78.063 405.881 80.376 C 397.472 85.523 394.006 96.353 398.309 105.334 C 399.723 108.287 402.069 110.883 404.69 112.827 C 406.679 114.301 409.226 115.228 411.52 116.093 C 416.331 117.908 421.376 119.053 426.221 120.779 C 430.728 122.386 435.533 125.434 434.823 130.911 C 434.301 134.926 430.887 137.741 427.228 138.971 C 420.751 141.149 412.701 140.342 406.283 138.293 C 403.959 137.551 401.74 136.549 399.436 135.76 C 398.62 135.481 397.279 135.04 396.471 135.549 C 395.493 136.165 395.811 137.994 395.811 138.967 C 395.811 140.605 395.406 142.918 396.242 144.4 C 396.802 145.394 398.242 146.252 399.243 146.766 C 401.415 147.881 403.938 148.452 406.283 149.067 C 412.761 150.766 419.374 151.284 426.02 150.389 C 430.444 149.793 434.966 148.342 438.707 145.899 C 441.746 143.916 444.054 141.313 445.843 138.161 C 450.197 130.485 448.181 119 440.923 113.881 C 435.65 110.163 428.825 108.88 422.798 106.878 C 417.739 105.198 409.703 102.815 409.532 96.272 C 409.422 92.1 412.645 89.071 416.353 87.883 C 422.294 85.979 429.006 86.788 434.881 88.476 C 436.887 89.053 438.736 90.043 440.721 90.652 C 441.42 90.866 442.626 91.042 443.283 90.627 C 444.187 90.058 443.944 88.513 443.944 87.612 C 443.944 84.695 444.371 82.016 441.527 80.287 C 439.539 79.079 437.118 78.446 434.881 77.871 C 430.821 76.827 426.779 76.334 422.596 76.334 C 421.2 76.334 419.75 76.222 418.367 76.42 Z " fill="rgb(37,47,62)"/><path d=" M 273.164 109.362 C 269.997 109.11 266.85 108.059 263.699 107.61 C 255.563 106.45 246.703 106.774 239.331 110.71 C 228.372 116.562 225.378 132.887 232.641 142.792 C 234.548 145.392 237.412 147.403 240.337 148.692 C 243.507 150.088 246.785 150.446 250.205 150.446 C 256.042 150.446 261.696 149.228 266.72 146.131 C 268.531 145.013 270.207 143.629 271.753 142.171 C 272.588 141.384 273.237 140.444 274.171 139.772 C 274.898 142.296 276.465 144.9 278.125 146.906 C 278.817 147.742 279.69 148.782 280.825 148.99 C 282.977 149.385 284.787 147.866 286.456 146.754 C 287.669 145.945 289.531 145.11 289.965 143.599 C 290.461 141.874 289.469 140.66 288.857 139.168 C 287.681 136.303 286.488 133.65 286.273 130.508 C 285.697 122.101 286.053 113.566 286.053 105.133 C 286.053 98.826 285.947 92.001 282.537 86.422 C 277.418 78.048 267.437 76.535 258.462 76.535 C 254.196 76.535 250.118 76.864 245.976 77.92 C 242.972 78.685 239.88 79.589 237.115 81.011 C 236.194 81.485 235.056 81.806 234.352 82.599 C 233.804 83.216 233.689 84.005 233.576 84.792 C 233.304 86.69 233.118 89.589 233.771 91.416 C 234.364 93.078 237.036 91.826 238.122 91.428 C 242.611 89.782 247.21 87.918 252.018 87.445 C 259.186 86.74 268.261 87.059 271.651 94.661 C 273.669 99.187 273.164 104.541 273.164 109.362 Z " fill="rgb(37,47,62)"/><path d=" M 341.436 93.654 C 342.227 95.231 342.516 97.17 342.888 98.89 C 343.382 101.179 343.971 103.463 344.532 105.737 C 346.815 114.99 348.917 124.285 351.229 133.529 C 352.066 136.878 352.808 140.25 353.645 143.599 C 353.989 144.975 354.155 146.886 355.226 147.929 C 356.167 148.845 357.541 148.835 358.755 148.835 C 361.202 148.835 363.774 149.061 366.207 148.8 C 367.363 148.676 368.57 148.242 369.212 147.216 C 370.169 145.688 370.481 143.681 371.04 141.988 C 372.318 138.116 373.461 134.2 374.67 130.307 C 378.238 118.827 382.046 107.406 385.424 95.869 C 386.59 91.888 387.977 87.97 389.137 83.987 C 389.551 82.566 390.479 80.677 389.821 79.18 C 389.385 78.187 388.039 78.348 387.151 78.348 L 381.714 78.348 C 380.662 78.348 379.512 78.221 378.499 78.561 C 376.934 79.088 376.401 80.745 375.943 82.174 C 374.847 85.593 374.047 89.163 373.18 92.647 C 370.702 102.606 367.995 112.505 365.476 122.453 L 363.261 131.112 C 362.949 132.346 362.829 133.964 361.977 134.939 C 361.867 133.555 361.416 132.261 361.132 130.911 C 360.452 127.675 359.643 124.456 358.851 121.244 C 356.884 113.274 355.177 105.244 353.212 97.279 C 352.22 93.261 351.375 89.209 350.372 85.195 C 349.942 83.474 349.723 81.446 348.865 79.874 C 348.191 78.639 346.976 78.413 345.665 78.356 C 343.324 78.253 340.959 78.348 338.616 78.348 C 337.468 78.348 336.18 78.268 335.238 79.063 C 334.147 79.982 333.916 82.07 333.605 83.383 C 332.808 86.739 332.031 90.103 331.217 93.452 C 329.113 102.101 327.102 110.772 325.053 119.432 C 323.886 124.367 323.033 129.503 321.498 134.335 C 320.361 131.322 319.796 127.991 319.006 124.869 C 317.713 119.763 316.362 114.671 315.079 109.564 C 313.426 102.984 311.648 96.423 310.066 89.827 C 309.614 87.943 309.1 86.074 308.656 84.188 C 308.3 82.676 307.963 80.942 307.053 79.646 C 306.245 78.495 304.876 78.354 303.574 78.348 C 301.426 78.338 299.278 78.348 297.13 78.348 C 295.93 78.348 294.318 78.041 293.968 79.557 C 293.525 81.482 294.565 83.79 295.121 85.598 C 296.337 89.555 297.519 93.523 298.736 97.48 C 302.324 109.151 305.786 120.862 309.409 132.522 C 310.366 135.6 311.314 138.689 312.205 141.786 C 312.705 143.521 313.079 145.687 314.056 147.22 C 314.952 148.626 316.382 148.633 317.873 148.633 L 324.519 148.633 C 325.63 148.633 326.989 148.673 327.904 147.926 C 328.609 147.351 328.822 146.441 329.082 145.613 C 329.68 143.704 330.062 141.715 330.534 139.772 C 332.326 132.396 333.983 124.984 335.822 117.619 C 337.191 112.136 338.559 106.625 339.756 101.105 C 340.289 98.648 341.23 96.165 341.436 93.654 Z " fill="rgb(37,47,62)"/><path d=" M 255.442 116.698 C 251.822 117.179 247.979 117.918 245.466 120.849 C 241.511 125.461 241.681 134.337 246.782 138.062 C 249.537 140.074 253.353 140.321 256.65 139.916 C 262.595 139.186 268.816 136.347 271.557 130.71 C 272.483 128.804 272.812 126.555 272.98 124.467 C 273.094 123.045 273.165 121.667 273.164 120.237 C 273.164 119.74 273.285 118.994 272.957 118.571 C 272.292 117.717 269.748 117.644 268.733 117.468 C 264.493 116.732 259.737 116.127 255.442 116.698 Z " fill="rgb(255,255,255)"/><path d=" M 361.977 134.536 L 361.977 134.939 L 362.38 134.939 L 362.38 134.536 L 361.977 134.536 Z " fill="rgb(9,11,15)"/><path d=" M 437.902 165.434 C 435.896 165.698 433.872 165.698 431.86 166.008 C 427.224 166.724 422.55 168.09 418.367 170.234 C 416.854 171.01 414.701 171.993 413.711 173.423 C 413.19 174.175 412.924 175.427 413.958 175.873 C 414.748 176.214 415.742 175.95 416.554 175.852 L 421.589 175.274 C 426.759 174.656 431.914 174.481 437.096 174.61 C 439.656 174.674 443.061 174.821 445.148 176.504 C 447.297 178.237 446.916 181.446 446.511 183.877 C 445.5 189.952 443.327 195.885 441.084 201.599 C 440.383 203.383 439.299 205.348 438.975 207.238 C 438.81 208.193 438.965 209.197 440.117 209.232 C 441.946 209.286 443.39 207.39 444.548 206.231 C 447.879 202.896 450.259 198.94 452.352 194.752 C 455.27 188.912 457.024 182.503 457.672 176.023 C 457.89 173.844 458.428 170.436 456.949 168.58 C 455.858 167.211 453.812 166.827 452.201 166.431 C 447.766 165.342 442.445 164.838 437.902 165.434 Z " fill="rgb(255,153,0)"/><path d=" M 220.601 170.096 C 218.644 170.479 218.745 172.573 219.822 173.807 C 222.361 176.715 225.831 179.147 228.858 181.528 C 240.315 190.542 252.838 197.97 266.115 203.954 C 286.171 212.994 308.054 217.766 329.956 218.725 C 334.624 218.93 339.371 219.116 344.054 218.911 C 361.271 218.157 378.188 214.989 394.603 209.724 C 405.24 206.313 415.626 201.742 425.214 196.001 C 427.476 194.647 429.671 193.197 431.86 191.731 C 433.201 190.832 434.768 189.921 435.846 188.702 C 438.462 185.737 435.248 182.273 431.86 183.23 C 429.254 183.966 426.747 185.334 424.207 186.283 C 418.041 188.59 411.814 190.769 405.478 192.565 C 385.8 198.142 365.501 201.498 345.061 201.999 C 320.552 202.6 295.63 198.83 272.157 191.787 C 259.434 187.97 246.985 183.123 235.101 177.181 C 231.705 175.483 228.333 173.727 225.032 171.85 C 223.793 171.146 222.119 169.8 220.601 170.096 Z " fill="rgb(255,153,0)"/></g></svg>