<?xml version="1.0" encoding="UTF-8" standalone="no"?><!-- Generator: Gravit.io --><svg xmlns="http://www.w3.org/2000/svg" xmlns:xlink="http://www.w3.org/1999/xlink" style="isolation:isolate" viewBox="0 0 500 500" width="500pt" height="500pt"><defs><clipPath id="_clipPath_iBgqea7wd5iqA4o9mWpvFG89cjiFaJqP"><rect width="500" height="500"/></clipPath></defs><g clip-path="url(#_clipPath_iBgqea7wd5iqA4o9mWpvFG89cjiFaJqP)"><g><path d=" M 312 33 L 293 33 C 290.801 33.005 287.589 32.534 285.742 34.028 C 283.187 36.095 284.001 41.127 284 44 C 283.999 47.477 282.699 54.379 285.028 57.258 C 288.125 61.086 300.526 59.08 304.999 58.995 C 306.981 58.958 309.594 59.136 310.972 57.397 C 312.468 55.508 311.995 52.236 312 50 L 312 33 Z " fill="rgb(12,146,209)"/><path d=" M 218.603 65.028 C 215.927 67.147 217 73.02 217 76 C 217 79.278 215.824 85.534 218.028 88.258 C 219.417 89.975 222.006 89.922 224.001 89.985 C 228.734 90.134 239.515 91.895 243.397 88.821 C 246.064 86.708 245 80.97 245 78 C 245 74.672 246.175 68.385 243.972 65.603 C 242.594 63.864 239.981 64.042 237.999 64.005 C 233.363 63.917 222.378 62.038 218.603 65.028 Z " fill="rgb(12,146,209)"/><path d=" M 251 64 L 251 81 C 251.005 83.236 250.532 86.508 252.028 88.397 C 253.406 90.136 256.019 89.958 258.001 89.995 C 262.328 90.077 275.041 92.097 277.972 88.397 C 280.301 85.457 279 78.531 279 75 C 279 72.197 279.918 67.025 277.397 65.028 C 275.508 63.532 272.236 64.005 270 64 L 251 64 Z " fill="rgb(12,146,209)"/><path d=" M 312 64 L 293 64 C 290.801 64.005 287.589 63.534 285.742 65.028 C 283.187 67.095 284.001 72.127 284 75 C 283.999 78.477 282.699 85.379 285.028 88.258 C 288.125 92.086 300.526 90.08 304.999 89.995 C 306.981 89.958 309.594 90.136 310.972 88.397 C 312.468 86.508 311.995 83.236 312 81 L 312 64 Z " fill="rgb(12,146,209)"/><path d=" M 374 71 C 363.015 87.604 361.498 103.71 369 122 C 363.929 122.934 359.167 125.498 354 126 C 338.665 127.491 322.418 126 307 126 L 212 126 L 175 126 C 169.755 126 163.86 125.394 161.333 131 C 159.272 135.574 161 141.079 161 146 C 161 163.09 166.612 181.397 175.333 196 C 177.882 200.268 182.514 208.222 187 210.5 C 188.549 211.287 189.366 212.714 191 213.625 C 193.301 214.907 192.009 214.137 194 216 C 196.978 217.56 199.77 219.051 203 220 C 204.813 216.902 201.081 218.914 204 220 L 206 221 C 209.693 223.575 219.99 226.147 226 226.999 C 243.772 229.52 262.134 230.063 280 228.05 C 286.12 227.361 298.089 227.161 302 222 C 310.259 223.72 320.723 217.19 328 213.625 C 351.006 202.356 367.274 183.641 380.128 161.961 C 384.341 154.855 386.505 144.498 391.818 138.318 C 394.457 135.248 399.363 136.028 403 135.385 C 409.197 134.289 414.674 132.361 420 129 C 421.04 124.966 423.909 125.143 426.896 122.662 C 429.729 120.308 432.899 115.785 433.295 112.015 C 433.779 107.408 428.554 105.371 425 104.09 C 416.139 100.896 406.261 102 397 102 C 395.9 88.553 386.215 76.416 374 71 Z " fill="rgb(12,146,209)"/><path d=" M 184 95 L 184 112 C 184.005 114.236 183.532 117.508 185.028 119.397 C 186.583 121.361 189.791 120.984 192 120.999 C 197.999 121.041 204.001 121 210 121 C 212.155 114.967 212.043 109.375 211.999 103 C 211.984 100.791 212.361 97.583 210.397 96.028 C 208.508 94.532 205.236 95.005 203 95 L 184 95 Z " fill="rgb(12,146,209)"/><path d=" M 218.603 96.028 C 215.927 98.147 217 104.02 217 107 C 217 110.328 215.825 116.615 218.028 119.397 C 219.406 121.136 222.019 120.958 224.001 120.995 C 228.637 121.083 239.622 122.962 243.397 119.972 C 246.073 117.853 245 111.98 245 109 C 245 105.672 246.175 99.385 243.972 96.603 C 242.594 94.864 239.981 95.042 237.999 95.005 C 233.363 94.917 222.378 93.038 218.603 96.028 Z " fill="rgb(12,146,209)"/><path d=" M 252.603 96.028 C 249.927 98.147 251 104.02 251 107 C 251 110.328 249.825 116.615 252.028 119.397 C 253.406 121.136 256.019 120.958 258.001 120.995 C 262.637 121.083 273.622 122.962 277.397 119.972 C 280.073 117.853 279 111.98 279 109 C 279 105.672 280.175 99.385 277.972 96.603 C 276.594 94.864 273.981 95.042 271.999 95.005 C 267.363 94.917 256.378 93.038 252.603 96.028 Z " fill="rgb(12,146,209)"/><path d=" M 312 95 L 293 95 C 290.764 95.005 287.492 94.532 285.603 96.028 C 283.082 98.025 284 103.197 284 106 C 284 109.531 282.699 116.457 285.028 119.397 C 287.959 123.097 300.672 121.077 304.999 120.995 C 306.981 120.958 309.594 121.136 310.972 119.397 C 312.468 117.508 311.995 114.236 312 112 L 312 95 Z " fill="rgb(12,146,209)"/><path d=" M 319.603 96.028 C 316.927 98.147 318 104.02 318 107 C 318 110.328 316.825 116.615 319.028 119.397 C 320.406 121.136 323.019 120.958 325.001 120.995 C 329.637 121.083 340.622 122.962 344.397 119.972 C 347.073 117.853 346 111.98 346 109 C 346 105.672 347.175 99.385 344.972 96.603 C 343.594 94.864 340.981 95.042 338.999 95.005 C 334.363 94.917 323.378 93.038 319.603 96.028 Z " fill="rgb(12,146,209)"/></g></g></svg>