<?xml version="1.0" encoding="UTF-8" standalone="no"?><!-- Generator: Gravit.io --><svg xmlns="http://www.w3.org/2000/svg" xmlns:xlink="http://www.w3.org/1999/xlink" style="isolation:isolate" viewBox="0 0 500 500" width="500pt" height="500pt"><defs><clipPath id="_clipPath_d04t9iXXjyjwN3AvWvX7PqyfNXeoiZxs"><rect width="500" height="500"/></clipPath></defs><g clip-path="url(#_clipPath_d04t9iXXjyjwN3AvWvX7PqyfNXeoiZxs)"><path d=" M 172.723 280.114 C 200.089 268.322 226.039 250.975 251.957 236.241 C 264.989 228.832 282.447 222.149 293.263 211.69 C 301.786 203.449 299.433 186.985 298.956 176.131 C 298.78 172.183 298.899 166.485 295.033 164.075 C 290.817 161.448 285.476 164.416 281.668 166.362 C 270.692 171.973 260.182 178.846 249.481 184.981 L 197.484 215.041 C 190.057 219.276 179.768 223.409 175.268 231.113 C 168.237 243.147 172.723 266.502 172.723 280.114 Z " fill="rgb(25,139,255)"/><path d=" M 417.854 218.213 C 394.777 202.99 370.019 189.897 346.048 176.12 C 339.006 172.072 325.766 161.006 317.122 163.313 C 310.888 164.977 311.487 173.642 311.395 178.598 C 311.13 192.512 306.304 220.255 315.696 231.56 C 322.741 240.038 344.726 253.505 355.952 252.799 C 363.935 252.298 371.601 246.425 378.237 242.477 C 391.385 234.652 406.127 228.031 417.854 218.213 Z " fill="rgb(61,83,219)"/><path d=" M 296.526 208.308 C 270.323 227.021 240.318 241.23 212.34 257.134 C 201.399 263.354 182.129 270.075 175.268 281.053 C 169.568 290.172 172.723 306.876 172.723 317.255 C 190.54 309.836 214.855 299.416 228.887 285.972 C 234.082 280.995 234.344 273.786 238.584 268.261 C 244.65 260.356 255.949 255.894 264.338 250.898 C 281.08 240.927 306.579 232.277 296.526 208.308 Z " fill="rgb(27,136,255)"/><path d=" M 355.952 252.878 C 361.122 258.982 369.34 263.413 373.215 270.468 C 379.814 282.477 375.761 303.869 375.761 317.255 C 391.912 315.141 406.551 304.244 420.327 295.951 C 426.223 292.402 433.352 288.822 436.169 282.132 C 438.611 276.331 437.66 268.921 437.662 262.782 C 437.67 247.425 441.884 223.273 420.327 220.91 C 412.293 220.029 404.649 225.778 398.045 229.55 C 384.159 237.483 370.645 246.546 355.952 252.878 Z " fill="rgb(64,99,219)"/><path d=" M 276.718 262.782 L 276.718 349.444 L 291.574 349.444 L 291.574 312.303 C 299.379 315.705 303.328 315.024 311.383 312.303 C 308.652 308.697 307.562 307.607 303.955 304.875 C 316.843 291.988 333.323 279.449 341.096 262.782 C 316.813 262.868 306.641 277.725 291.574 294.971 L 291.574 262.782 L 276.718 262.782 Z " fill="rgb(62,88,219)"/><path d=" M 232.149 282.59 C 219.644 291.52 205.891 298.715 192.532 306.3 C 186.782 309.565 178.97 312.416 175.268 318.222 C 167.488 330.423 172.723 357.58 172.723 371.729 C 187.849 368.812 201.551 359.153 214.816 351.548 C 220.806 348.114 228.353 344.873 232.08 338.726 C 238.877 327.514 237.057 294.287 232.149 282.59 Z " fill="rgb(30,131,255)"/><path d=" M 435.186 285.067 C 417.487 296.777 396.56 312.485 375.761 317.255 C 375.766 324.207 374.646 332.762 378.306 339.02 C 381.968 345.284 389.523 348.803 395.569 352.291 C 408.871 359.965 422.212 369.708 437.662 371.729 L 437.662 314.779 C 437.662 304.918 439.029 294.225 435.186 285.067 Z  M 299.003 317.255 C 307.981 336.515 322.29 349.369 343.572 349.444 C 335.376 333.645 318.492 308.503 299.003 317.255 Z " fill="rgb(65,102,219)"/><path d=" M 232.149 339.54 C 214.058 351.473 193.429 365.177 172.723 371.729 C 173.932 387.427 184.984 391.649 197.484 398.993 C 206.872 404.507 218.379 414.223 229.673 414.775 C 237.722 415.169 245.201 409.484 251.957 405.822 C 266.177 398.114 280.255 390.077 294.05 381.633 C 274.781 365.501 249.113 358.766 232.149 339.54 Z " fill="rgb(35,124,255)"/><path d=" M 229.673 416.298 C 241.298 426.032 263.675 441.97 279.194 442.738 C 292.07 443.376 305.614 431.84 316.335 425.856 C 345.615 409.514 374.54 389.628 405.473 376.681 L 405.473 371.729 C 395.104 365.614 380.767 353.854 368.332 353.854 C 350.955 353.854 331.271 372.835 316.335 380.498 C 306.28 385.658 296.65 381.342 286.622 385.24 C 266.735 392.971 249.054 407.248 229.673 416.298 Z " fill="rgb(37,120,255)"/><path d=" M 276.718 443.535 C 283.972 449.609 294.164 456.96 303.955 457.567 C 313.745 458.176 323.097 451 331.191 446.382 C 349.415 435.988 367.52 425.403 385.665 414.872 C 393.742 410.185 427.82 397.064 422.37 384.539 C 414.935 367.45 393.165 380.89 383.189 386.588 C 360.944 399.29 338.786 412.151 316.335 424.484 C 303.504 431.531 291.245 440.734 276.718 443.535 Z " fill="rgb(39,117,255)"/></g></svg>