<?xml version="1.0" encoding="UTF-8" standalone="no"?><!-- Generator: Gravit.io --><svg xmlns="http://www.w3.org/2000/svg" xmlns:xlink="http://www.w3.org/1999/xlink" style="isolation:isolate" viewBox="0 0 500 500" width="500pt" height="500pt"><defs><clipPath id="_clipPath_fKDyE8lOytnH1NMXi4LbRZF5eB1pWHk5"><rect width="500" height="500"/></clipPath></defs><g clip-path="url(#_clipPath_fKDyE8lOytnH1NMXi4LbRZF5eB1pWHk5)"><g><g><path d=" M 275.205 226.23 L 275.205 181.976 C 275.204 175.533 276.573 166.6 273.807 160.631 C 269.603 151.559 253.295 157.554 252.739 144.954 C 252.474 138.936 257.194 132.788 259.907 127.888 C 266.215 116.496 271.632 104.494 278.54 93.482 C 281.28 89.114 285.337 81.758 291.27 82.727 C 296.923 83.651 300.103 91.352 302.647 95.929 C 310.336 109.767 321.145 124.973 326.131 140.143 C 331.69 157.057 309.398 150.728 306.057 162.672 C 300.921 181.04 305.32 207.075 305.32 226.23 C 318.773 220.819 330.303 210.852 342.386 202.661 C 364.85 187.433 387.375 172.243 409.568 156.571 C 419.163 149.795 438.97 141.264 441.127 127.859 C 443.578 112.631 421.477 102.711 411.884 95.927 C 383.575 75.908 354.801 56.542 326.17 37.045 C 316.16 30.229 301.695 15.564 289.104 16.314 C 276.209 17.083 262.412 31.334 252.039 38.534 C 224.31 57.782 196.305 76.564 168.641 95.919 C 158.678 102.89 136.856 111.888 139.397 127.854 C 141.599 141.686 161.133 149.669 170.958 156.573 C 190.957 170.628 211.19 184.313 231.189 198.368 C 245.207 208.22 259.369 220.068 275.205 226.23 Z " fill="rgb(50,108,229)"/><path d=" M 252.039 152.473 C 283.041 152.862 277.52 181.673 277.521 206.561 C 277.522 216.144 274.97 231.585 286.922 233.829 C 311.714 238.484 302.432 189.694 303.048 174.6 C 303.34 167.483 304.635 160.965 310.297 156.413 C 317.04 150.991 329.742 152.931 326.731 140.133 C 323.256 125.359 311.258 109.069 303.979 95.938 C 301.051 90.659 297.805 83.102 291.277 82.321 C 282.834 81.312 278.664 92.154 275.18 98.387 C 265.646 115.446 253.035 132.08 252.039 152.473 Z " fill="rgb(193,210,247)"/><line x1="275.205" y1="159.849" x2="275.205" y2="228.688"/><line x1="303.004" y1="159.849" x2="303.004" y2="228.688"/><path d=" M 305.32 260.649 C 307.614 275.57 320.49 278.339 333.12 280.318 C 325.009 272.082 315.203 266.233 305.32 260.649 Z " fill="rgb(50,108,229)"/><path d=" M 249.722 275.401 L 249.722 280.318 C 258.129 285.011 266.045 289.805 275.205 292.61 C 274.658 274.872 265.14 268.649 249.722 275.401 Z " fill="rgb(50,108,229)"/><path d=" M 219.606 297.528 L 219.606 302.445 C 237.305 313.751 254.887 324.498 275.205 329.489 C 274.673 312.525 264.835 311.133 252.039 304.232 C 239.704 297.579 233.008 289.663 219.606 297.528 Z " fill="rgb(50,108,229)"/><path d=" M 305.32 290.152 C 305.578 313.149 322.475 311.111 340.07 315.913 C 363.507 322.31 388.524 329.39 409.568 342.352 C 421.595 349.762 431.038 360.019 442 368.825 C 441.391 348.933 426.192 342.723 411.884 332.793 C 378.351 309.52 342.975 302.929 305.32 290.152 Z " fill="rgb(50,108,229)"/><path d=" M 189.49 317.196 C 202.906 345.231 248.22 357.981 275.205 363.908 C 275.044 358.78 275.442 353.142 271.49 349.371 C 265.622 343.773 254.653 342.327 247.405 339.315 C 229.673 331.945 208.237 309.397 189.49 317.196 Z " fill="rgb(50,108,229)"/><path d=" M 305.32 324.572 C 305.902 343.134 318.604 342.853 333.12 347.072 C 353.327 352.943 373.354 360.493 391.035 372.631 C 402.546 380.533 409.489 390.234 423.467 383.577 C 417.757 370.851 406.892 363.611 395.668 356.569 C 368.383 339.448 336.092 331.308 305.32 324.572 Z " fill="rgb(50,108,229)"/><path d=" M 159.375 339.323 C 191.738 387.673 259.714 387.614 307.637 406.748 C 324.483 413.475 345.71 433.77 363.236 425.372 C 355.651 409.625 336.502 402.055 321.537 396.027 C 285.268 381.418 245.567 377.204 210.34 359.714 C 194.913 352.053 175.848 329.09 159.375 339.323 Z " fill="rgb(50,108,229)"/><path d=" M 138.525 354.074 C 139.151 374.529 153.705 381.92 168.641 391.968 C 202.429 414.697 242.702 418.127 279.838 431.904 C 296.756 438.178 316.327 456.276 333.12 445.04 C 322.73 432.167 306.245 425.298 291.421 419.698 C 261.103 408.243 229.079 403.198 198.757 391.695 C 175.882 383.014 159.768 364.525 138.525 354.074 Z " fill="rgb(50,108,229)"/><path d=" M 305.32 356.533 C 305.48 361.72 305.059 367.608 309.034 371.449 C 317.71 379.827 336.189 382.131 347.019 387.087 C 358.303 392.253 368.052 402.316 379.44 406.581 C 385.253 408.759 388.484 406.279 393.351 403.245 C 373.929 374.667 335.61 365.587 305.32 356.533 Z " fill="rgb(50,108,229)"/><path d=" M 238.139 437.665 C 252.644 454.338 281.545 476.625 303.004 467.167 C 288.871 449.67 259.174 440.686 238.139 437.665 Z " fill="rgb(50,108,229)"/></g></g></g></svg>