<?xml version="1.0" encoding="UTF-8" standalone="no"?><!-- Generator: Gravit.io --><svg xmlns="http://www.w3.org/2000/svg" xmlns:xlink="http://www.w3.org/1999/xlink" style="isolation:isolate" viewBox="0 0 500 500" width="500pt" height="500pt"><defs><clipPath id="_clipPath_PsKvXphSk1ejCj3nCxEGbN89HyNXKzDG"><rect width="500" height="500"/></clipPath></defs><g clip-path="url(#_clipPath_PsKvXphSk1ejCj3nCxEGbN89HyNXKzDG)"><path d=" M 254.83 98.075 C 231.227 98.075 207.108 106.899 187.191 119.089 C 182.427 105.101 172.155 91.037 160.267 82.265 C 156.172 79.244 148.408 74.431 143.34 78.206 C 138.871 81.534 140.574 89.601 141.652 94.135 C 144.202 104.858 150.854 115.311 157.827 123.686 C 160.698 127.134 163.455 130.786 167.49 132.88 C 159.416 143.437 145.463 151.751 141.223 165.058 C 147.251 169.121 153.968 174.676 160.923 176.878 C 170.129 163.235 181.447 151.398 195.071 142.093 C 232.211 116.723 282.122 113.548 321.812 135.053 C 341.787 145.875 357.14 161.469 369.75 180.162 C 376.573 176.973 383.172 172.496 389.451 168.341 C 386.657 159.575 378.539 151.34 372.433 144.7 C 369.497 141.508 366.988 138.363 363.183 136.163 C 374.816 124.771 385.843 112.68 390.931 96.762 C 392.495 91.87 394.78 82.81 390.489 78.66 C 385.68 74.008 377.145 79.232 373.034 82.265 C 363.565 89.252 355.589 99.493 350.219 109.896 C 348.275 113.663 346.177 117.509 345.453 121.716 C 332.347 112.882 317.457 106.165 302.111 102.327 C 296.674 100.968 291.24 99.909 285.694 99.113 C 283.925 98.858 280.873 99.132 279.582 97.679 C 278.315 96.253 279.215 93.797 279.505 92.165 C 280.281 87.812 280.568 83.425 280.986 79.031 C 281.388 74.811 280.793 70.739 280.5 66.554 C 279.929 58.413 278.925 49.107 274.012 42.257 C 273.203 41.129 272.29 40.048 271.221 39.156 C 263.757 32.933 257.694 43.311 255.622 49.48 C 250.412 64.99 251.584 82.343 254.83 98.075 Z " fill="rgb(39,122,159)"/><path d=" M 68.33 192.639 L 68.33 299.679 L 96.568 299.679 L 96.568 256.994 L 128.746 256.994 L 128.746 299.679 L 156.326 299.679 L 156.326 193.295 L 128.746 193.295 L 128.746 232.697 L 96.568 232.697 L 96.568 192.639 L 68.33 192.639 Z " fill="rgb(39,122,159)"/><path d=" M 179.967 192.639 L 179.967 299.679 L 250.233 299.679 L 250.233 276.038 L 208.205 276.038 L 208.205 256.337 L 243.009 256.337 L 243.009 233.353 L 208.205 233.353 L 208.205 216.279 L 248.92 216.279 L 248.92 192.639 L 179.967 192.639 Z " fill="rgb(39,122,159)"/><path d=" M 271.904 192.639 L 271.904 299.679 L 340.199 299.679 L 340.199 276.038 L 300.141 276.038 L 300.141 192.639 L 271.904 192.639 Z " fill="rgb(39,122,159)"/><path d=" M 359.243 192.639 L 359.243 299.679 L 384.197 299.679 C 384.197 286.203 385.059 272.407 384.138 258.964 C 383.478 249.323 381.328 239.708 380.914 230.07 C 384.114 233.7 385.087 239.96 386.605 244.517 C 389.986 254.66 393.564 264.707 397.298 274.725 L 401.238 285.232 C 401.809 286.753 402.267 288.809 403.668 289.81 C 404.981 290.75 406.977 290.482 408.495 290.485 L 419.002 290.485 C 422.232 276.853 429.01 263.732 433.449 250.427 C 434.844 246.244 436.432 242.134 437.827 237.95 C 438.749 235.183 439.384 232.277 441.329 230.07 C 440.144 239.447 438.75 248.875 438.104 258.307 C 437.169 271.967 438.046 285.986 438.046 299.679 L 463 299.679 L 463 193.295 L 441.329 193.295 C 439.019 193.295 435.122 192.57 433.127 193.97 C 431.734 194.949 431.331 197.035 430.822 198.549 C 429.564 202.293 428.179 205.983 426.882 209.712 C 423.236 220.197 419.214 230.575 416.097 241.234 C 414.775 245.749 412.845 250.321 412.435 255.024 C 408.773 251.165 407.885 243.636 406.339 238.607 C 403.195 228.382 399.069 218.442 395.396 208.399 C 394.115 204.896 392.881 201.377 391.547 197.892 C 390.976 196.4 390.5 194.284 389.116 193.314 C 387.12 191.914 383.226 192.639 380.914 192.639 L 359.243 192.639 Z " fill="rgb(39,122,159)"/><path d=" M 365.81 314.126 C 361.364 319.339 357.418 324.925 352.651 329.886 C 343.001 339.929 331.048 348.569 318.529 354.671 C 275.663 375.563 224.407 369.728 187.191 340 C 178.34 332.929 169.59 324.448 163.55 314.783 C 156.584 316.42 149.622 323.125 143.849 327.26 C 146.642 333.898 152.616 339.942 157.64 344.99 C 159.46 346.819 164.157 350.039 164.171 352.871 C 164.178 354.412 162.671 355.731 161.761 356.811 C 159.385 359.63 156.973 362.387 154.77 365.348 C 148.935 373.189 143.323 382.613 141.232 392.272 C 140.498 395.662 139.921 400.057 140.995 403.433 C 143.654 411.799 154.171 406.98 158.953 403.751 C 170.227 396.138 182.063 381.87 185.877 368.631 C 195.024 372.573 203.399 377.94 212.802 381.486 C 226.238 386.553 240.033 388.515 254.173 390.302 C 250.669 404.526 251.032 421.687 255.72 435.613 C 257.368 440.51 261.358 449.395 267.963 447.704 C 273.891 446.187 276.461 438.82 277.997 433.643 C 282.401 418.804 280.35 404.616 279.127 389.645 C 302.38 389.165 327.018 378.637 346.109 366.004 C 350.925 380.146 361.46 394.678 373.69 403.298 C 379.119 407.124 391.583 412.3 392.665 401.466 C 394.002 388.079 385.287 374.218 377.545 364.034 C 375.141 360.872 372.552 357.693 369.725 354.9 C 368.661 353.848 366.504 352.541 366.504 350.841 C 366.504 348.82 369.134 346.937 370.404 345.647 C 374.035 341.957 377.426 337.928 380.586 333.827 C 381.877 332.15 384.899 329.114 383.652 326.816 C 381.953 323.687 376.555 321.337 373.69 319.363 C 371.082 317.564 368.581 315.67 365.81 314.126 Z " fill="rgb(39,122,159)"/></g></svg>