<?xml version="1.0" encoding="UTF-8" standalone="no"?><!-- Generator: Gravit.io --><svg xmlns="http://www.w3.org/2000/svg" xmlns:xlink="http://www.w3.org/1999/xlink" style="isolation:isolate" viewBox="0 0 500 500" width="500pt" height="500pt"><defs><clipPath id="_clipPath_7kB0fD2CePFEz4kMIO0hhfnbqmTfsBSd"><rect width="500" height="500"/></clipPath></defs><g clip-path="url(#_clipPath_7kB0fD2CePFEz4kMIO0hhfnbqmTfsBSd)"><g><path d=" M 252.756 14.048 C 244.86 15.123 238.104 19.045 231.017 22.474 C 222.211 26.734 213.341 30.861 204.534 35.122 C 175.365 49.236 145.774 62.54 116.786 77.024 C 107.515 81.657 98.055 85.943 88.723 90.459 C 81.948 93.737 75.76 96.575 71.125 102.814 C 65.194 110.798 64.38 121.843 62.148 131.273 C 57.759 149.813 53.363 168.382 49.33 187.004 C 44.009 211.576 37.975 236.009 32.399 260.523 C 31.05 266.451 29.772 272.412 28.298 278.309 C 26.892 283.935 25.29 289.854 25.989 295.701 C 27.268 306.395 33.82 313.777 40.469 321.788 C 45.654 328.035 50.602 334.481 55.749 340.76 C 77.07 366.775 97.988 393.151 119 419.417 L 137.103 441.947 C 141.226 447.101 145.079 452.718 150.779 456.252 C 158.848 461.252 167.339 460.92 176.471 460.92 L 207.696 460.92 L 301.768 460.92 L 331.808 460.92 C 338.113 460.92 344.527 461.299 350.78 460.41 C 364.12 458.516 371.493 446.888 379.239 437.204 C 395.291 417.141 411.487 397.189 427.54 377.124 C 440.311 361.159 453.01 345.111 465.967 329.298 C 469.615 324.85 473.196 320.35 476.789 315.859 C 480.133 311.679 483.509 307.61 485.157 302.42 C 487.687 294.463 486.141 287.384 484.461 279.495 C 482.461 270.111 480.264 260.753 478.003 251.432 C 472.876 230.294 468.351 208.994 463.473 187.795 C 460.536 175.021 457.105 162.305 454.516 149.455 C 452.651 140.194 450.418 130.963 448.161 121.786 C 446.145 113.574 444.757 106.15 438.809 99.667 C 435.042 95.562 430.014 93.369 425.089 91.043 C 419.145 88.235 413.277 85.277 407.303 82.533 C 386.241 72.863 365.214 62.823 344.456 52.518 C 324.59 42.655 304.431 33.321 284.377 23.848 C 274.422 19.146 264.271 12.481 252.756 14.048 Z " fill="rgb(50,108,229)"/><path d=" M 193.072 352.223 C 192.597 353.511 191.755 354.8 191.595 356.176 C 191.421 357.669 192.206 359.044 192.223 360.523 C 192.239 361.912 191.625 363.25 191.032 364.476 C 188.581 369.548 185.528 374.5 182.283 379.101 C 178.631 384.28 174.103 390.652 176.955 397.283 C 179.778 403.844 188.314 403.508 192.635 398.858 C 195.562 395.708 196.445 391.391 197.588 387.401 C 199.021 382.402 200.85 377.083 203.08 372.381 C 203.86 370.736 204.815 368.978 206.156 367.722 C 207.273 366.677 208.764 366.297 209.914 365.34 C 210.993 364.44 211.519 362.97 212.044 361.709 C 230.063 367.62 248.306 371.37 267.38 369.547 C 275.118 368.808 282.797 367.287 290.306 365.312 C 293.893 364.369 297.356 362.862 300.978 362.105 C 301.897 365.225 303.859 365.459 306.099 367.377 C 307.327 368.43 308.067 369.774 308.785 371.195 C 311.181 375.942 313.151 381.111 314.644 386.215 C 315.968 390.742 316.972 395.741 320.382 399.242 C 323.812 402.761 330.541 403.306 334.049 399.581 C 335.679 397.851 336.271 395.64 336.483 393.33 C 336.907 388.723 334.041 384.285 331.523 380.682 C 328.656 376.578 325.896 372.409 323.453 368.033 C 322.313 365.99 320.817 363.66 320.45 361.314 C 320.228 359.896 320.786 358.728 320.972 357.361 C 321.171 355.903 319.811 354.051 320.635 352.768 C 321.833 350.901 325.236 349.496 327.065 348.27 C 331.351 345.399 335.489 342.176 339.318 338.717 C 351.895 327.357 362.741 313.273 369.525 297.677 C 371.542 293.042 374.147 288.094 374.891 283.052 C 376.254 283.405 377.823 283.945 379.239 283.662 C 381.796 283.152 383.141 281.496 385.959 282.163 C 390.877 283.327 395.879 284.811 400.583 286.663 C 405.644 288.656 410.765 291.455 416.394 290.89 C 424.429 290.084 428.489 280.095 421.892 274.566 C 417.979 271.288 412.469 271.486 407.698 271.159 C 404.795 270.96 401.9 270.365 399.002 270.076 C 395.451 269.721 391.161 269.552 387.935 267.858 C 386.409 267.057 385.452 265.72 384.21 264.586 C 383.055 263.531 380.821 263.434 380.076 262.014 C 379.414 260.751 380.153 258.694 380.312 257.361 C 380.653 254.513 380.589 251.532 380.785 248.665 C 381.376 240.033 380.05 231.09 378.735 222.578 C 377.051 211.676 373.021 200.472 368.257 190.562 C 366.762 187.451 364.973 184.424 363.191 181.471 C 362.393 180.147 360.993 178.637 360.613 177.129 C 360.184 175.427 362.455 174.312 362.924 172.773 C 364.27 168.351 366.837 166.243 370.543 163.542 C 376.325 159.329 383.211 156.567 388.725 152.038 C 393.17 148.387 395.705 141.128 391.024 136.485 C 387.732 133.221 381.763 133.379 378.053 135.81 C 374.094 138.405 371.241 142.035 368.105 145.502 C 365.168 148.748 361.741 151.894 358.29 154.587 C 357.001 155.593 355.547 156.723 353.942 157.162 C 351.04 157.958 349.087 157.196 346.828 159.731 C 330.06 142.964 309.831 130.571 286.748 124.801 C 280.323 123.194 273.236 121.446 266.59 121.391 C 266.59 120.015 266.829 118.356 266.352 117.043 C 265.911 115.831 264.867 114.975 264.222 113.881 C 263.303 112.323 263.02 110.135 263.054 108.347 C 263.157 103.011 264.056 97.408 264.912 92.142 C 265.636 87.684 266.516 83.12 265.048 78.703 C 262.56 71.209 251.988 70.245 248.123 77.122 C 245.359 82.039 247.199 88.53 247.899 93.723 C 248.498 98.17 249.198 102.668 249.199 107.162 C 249.199 108.822 249.418 110.683 248.974 112.3 C 248.509 113.99 247.132 115.096 246.427 116.648 C 245.858 117.901 246.425 119.734 245.403 120.757 C 244.665 121.496 243.431 121.375 242.479 121.505 C 239.981 121.847 237.446 122.188 234.969 122.654 C 226.181 124.307 217.685 126.639 209.277 129.726 C 198.149 133.811 187.724 140.441 178.447 147.739 C 175.721 149.884 173.025 152.177 170.542 154.599 C 169.244 155.864 167.866 157.842 166.194 158.613 C 164.586 159.355 163.066 157.554 161.451 157.447 C 160.361 157.376 159.369 157.697 158.289 157.356 C 154.927 156.295 152.06 153.011 149.593 150.656 C 145.057 146.326 141.09 141.153 136.154 137.285 C 131.997 134.027 124.746 132.622 120.875 137.217 C 116.858 141.985 119.729 148.947 123.901 152.373 C 129.153 156.685 135.69 159.43 141.292 163.299 C 144.871 165.77 147.981 168.114 149.347 172.378 C 149.846 173.935 151.971 175.472 151.559 177.124 C 151.082 179.036 149.326 180.953 148.348 182.656 C 146.082 186.603 143.814 190.692 142.089 194.909 C 136.499 208.574 133.641 222.214 131.919 236.807 C 131.187 243.013 131.87 249.578 132.215 255.78 C 132.309 257.449 133.529 261.229 132.323 262.606 C 131.461 263.591 129.757 263.521 128.711 264.303 C 127.118 265.494 126.157 267.234 124.296 268.124 C 115.584 272.292 104.928 269.868 95.838 272.276 C 89.368 273.989 84.301 281.735 89.272 287.78 C 92.75 292.008 99.013 291.377 103.743 290.051 C 109.395 288.467 114.736 285.769 120.344 283.979 C 122.78 283.201 125.665 282.174 128.249 282.303 C 129.848 282.384 131.105 283.128 132.597 283.573 C 134.073 284.013 136.326 283.092 137.532 284.097 C 139.006 285.325 139.496 288.805 140.187 290.562 C 142.151 295.562 144.391 300.46 146.948 305.187 C 154.614 319.359 165.299 331.707 177.656 341.977 C 181.994 345.583 187.592 350.611 193.072 352.223 Z " fill="rgb(255,255,255)"/><path d=" M 187.143 173.565 C 187.732 175.575 189.432 176.508 191.095 177.653 C 193.359 179.21 195.579 180.831 197.815 182.428 C 207.009 188.998 216.26 195.492 225.483 202.024 C 229.624 204.957 234.821 206.734 238.837 202.382 C 242.523 198.388 241.485 190.832 241.704 185.818 C 242.269 172.925 243.953 159.991 244.06 147.083 C 238.878 147.126 233.599 148.543 228.645 149.965 C 218.743 152.808 209.11 157.09 200.582 162.905 C 195.831 166.144 191.794 170.289 187.143 173.565 Z  M 268.566 147.083 C 268.566 160.732 269.97 174.576 270.903 188.19 C 271.24 193.115 270.188 199.608 274.501 203.054 C 278.76 206.457 283.679 204.187 287.539 201.461 C 296.249 195.31 304.89 189.056 313.626 182.941 C 316.27 181.09 318.906 179.229 321.531 177.352 C 322.44 176.701 324.228 175.838 324.556 174.678 C 324.933 173.351 323.156 172.02 322.321 171.261 C 319.482 168.677 316.389 166.27 313.231 164.089 C 304.072 157.765 293.889 152.92 283.191 149.85 C 278.534 148.513 273.43 147.183 268.566 147.083 Z " fill="rgb(50,108,229)"/><path d=" M 171.332 193.724 C 162.66 206.871 158.206 223.19 157.138 238.783 C 156.758 244.335 157.483 249.861 157.498 255.384 C 162.151 254.757 166.816 252.886 171.332 251.598 C 180.034 249.117 188.717 246.57 197.419 244.088 C 202.027 242.775 208.546 241.945 210.922 237.202 C 213.625 231.804 209.527 227.234 205.72 223.876 C 197.911 216.989 190.215 209.977 182.4 203.097 C 178.986 200.092 175.466 195.651 171.332 193.724 Z " fill="rgb(50,108,229)"/><path d=" M 355.128 255.384 C 355.146 248.757 355.694 242.267 355.061 235.621 C 353.68 221.122 348.948 205.926 340.899 193.724 C 336.771 195.649 333.249 200.099 329.832 203.097 C 321.597 210.321 313.442 217.66 305.325 225.016 C 301.561 228.428 298.815 233.18 302.105 237.987 C 305.052 242.292 312.114 243.048 316.788 244.372 C 329.528 247.983 342.225 252.426 355.128 255.384 Z " fill="rgb(50,108,229)"/><path d=" M 248.476 230.099 C 245.71 231.635 243.4 235.932 241.451 238.388 C 240.61 239.449 239.598 240.541 239.443 241.945 C 239.167 244.438 240.459 247.43 240.981 249.851 C 241.381 251.705 241.522 254.416 242.599 256.01 C 243.327 257.087 244.92 257.506 246.036 258.055 C 248.969 259.497 252.621 262.227 255.918 262.569 C 257.33 262.716 258.633 261.809 259.871 261.258 C 262.773 259.966 265.823 258.698 268.543 257.046 C 271.105 255.49 271.247 250.97 271.866 248.27 C 272.297 246.392 273.35 243.87 273.121 241.945 C 272.956 240.562 271.845 239.43 271.016 238.388 L 266.59 232.854 C 265.782 231.847 264.944 230.454 263.709 229.931 C 261.522 229.004 257.875 229.692 255.523 229.692 C 253.504 229.692 250.29 229.091 248.476 230.099 Z " fill="rgb(50,108,229)"/><path d=" M 163.427 279.1 C 163.788 283.21 166.25 287.322 168.073 290.958 C 173.54 301.865 181.437 312.041 190.7 319.978 C 194.122 322.91 198.464 327.452 202.953 328.507 C 207.405 315.348 213.647 302.657 218.843 289.772 C 220.863 284.763 224.413 278.508 220.135 273.639 C 216.116 269.065 208.851 271.392 203.744 272.38 C 196.4 273.802 188.97 274.778 181.609 276.105 C 175.624 277.185 169.492 278.62 163.427 279.1 Z " fill="rgb(50,108,229)"/><path d=" M 310.069 328.903 C 314.256 326.922 318.041 323.609 321.531 320.602 C 330.102 313.22 337.215 304.331 342.816 294.515 C 345.453 289.893 348.682 284.397 349.595 279.1 C 336.11 277.387 322.689 274.518 309.278 272.283 C 304.374 271.465 297.408 269.023 293.109 272.591 C 288.011 276.824 291.046 283.293 293.132 288.191 C 296.648 296.447 300.086 304.764 303.428 313.092 C 305.528 318.326 307.42 323.928 310.069 328.903 Z " fill="rgb(50,108,229)"/><path d=" M 224.692 339.575 C 245.298 346.164 267.337 346.274 287.934 339.575 C 286.277 335.02 283.271 330.775 280.94 326.531 C 276.3 318.082 271.606 309.664 266.93 301.234 C 264.146 296.215 261.47 290.579 254.732 291.426 C 249.351 292.103 247.101 298.682 244.795 302.815 C 240.395 310.703 236.034 318.614 231.686 326.531 C 229.332 330.818 226.573 335.058 224.692 339.575 Z " fill="rgb(50,108,229)"/></g></g></svg>